<svg width="1018" height="305" viewBox="0 0 1018 305" fill="none" xmlns="http://www.w3.org/2000/svg">
<path d="M649.848 254.885C651.828 255.932 654.055 256.736 656.51 257.304C652.373 262.673 648.807 267.852 645.813 272.841C641.547 280.094 639.414 286.6 639.414 292.36C639.414 297.163 640.327 301.054 642.151 304.032C640.976 304.073 639.79 304.097 638.596 304.097C624.72 304.097 612.557 301.365 602.508 296.32C591.398 298.24 580.242 299.294 571.675 299.485C574.847 295.254 576.436 290.321 576.437 284.681C576.437 279.134 574.623 273.907 570.996 269C574.196 267.293 579.53 265.588 586.996 263.881C594.463 262.174 602.783 260.68 611.956 259.4C621.343 257.907 630.623 256.734 639.796 255.881C643.337 255.469 646.688 255.137 649.848 254.885ZM529.974 168.841C545.12 168.841 560.694 170.014 576.693 172.36C581.93 173.059 587.109 173.815 592.231 174.627V195.194C600.063 188.838 609.699 183.855 620.561 179.824C621.407 180.001 622.251 180.18 623.094 180.36C638.24 183.347 652.427 186.547 665.653 189.96C677.368 192.749 687.624 195.216 696.421 197.356C690.094 199.143 682.462 201.003 672.292 203.425C647.748 209.249 639.012 219.648 639.012 234.624C639.012 240.518 640.385 245.259 642.951 248.907C641.211 248.981 639.413 249.065 637.557 249.16C629.237 249.587 620.597 250.334 611.637 251.4C602.89 252.467 594.356 253.961 586.036 255.881C577.93 257.588 570.889 259.72 564.916 262.28C561.929 259.294 559.157 256.2 556.597 253C554.25 249.587 553.076 246.067 553.076 242.44C553.076 238.387 554.996 234.334 558.836 230.28C562.676 226.014 567.476 222.174 573.236 218.761C579.21 215.134 585.29 212.253 591.477 210.12C597.876 207.987 603.423 206.921 608.116 206.921C611.956 206.921 614.516 207.561 615.796 208.841C616.436 209.694 616.756 210.76 616.756 212.04C616.756 214.6 615.476 217.694 612.916 221.32C610.569 224.734 607.797 228.04 604.597 231.24C601.61 234.227 598.943 236.254 596.597 237.32C595.53 237.96 594.996 238.814 594.996 239.881C594.996 240.947 595.53 241.801 596.597 242.44C598.517 243.294 600.437 242.867 602.356 241.16C602.57 240.947 603.317 240.414 604.597 239.561C605.023 239.134 605.556 238.707 606.196 238.28C606.836 237.854 607.476 237.534 608.116 237.32C611.956 234.974 616.117 231.987 620.597 228.36C625.077 224.734 627.316 220.36 627.316 215.24C627.316 211.187 625.61 207.133 622.196 203.08C620.703 201.373 618.356 199.881 615.156 198.601C611.956 197.321 607.903 196.681 602.996 196.681C599.156 196.681 594.676 197.214 589.557 198.28C584.65 199.347 579.103 201.267 572.916 204.04C559.903 209.8 550.41 215.667 544.437 221.641C538.463 227.401 535.477 233.481 535.477 239.881C535.477 244.574 536.864 249.267 539.637 253.96C542.41 258.44 546.143 263.134 550.836 268.04C544.229 270.871 537.539 274.371 530.766 278.539C530.036 276.393 529.455 274.095 529 271.648H528.168C513.491 289.995 489.623 303.544 459.699 304.078C466.94 301.265 474.105 297.681 481.191 293.32C489.725 288.2 497.512 282.867 504.552 277.32C511.805 271.774 517.884 266.76 522.791 262.28C527.698 257.8 530.791 254.707 532.071 253C533.138 251.933 533.671 250.76 533.671 249.48C533.671 247.987 532.925 247.24 531.432 247.24C531.005 247.24 530.151 247.454 528.871 247.881C527.591 248.734 526.418 249.587 525.352 250.44C524.498 251.294 523.538 252.041 522.472 252.681C521.618 253.534 520.658 254.281 519.592 254.921C518.525 255.561 517.458 256.414 516.392 257.48C507.432 264.947 497.298 272.307 485.991 279.561C474.898 286.814 463.911 292.467 453.031 296.521C445.846 299.013 440.021 300.649 435.558 301.428C430.525 300.134 425.848 298.385 421.56 296.211C421.421 295.522 421.352 294.772 421.352 293.96C421.352 290.333 422.525 285.747 424.871 280.2C427.218 274.44 430.098 267.934 433.512 260.681C435.432 256.841 436.392 253.64 436.392 251.08C436.392 249.16 435.965 247.88 435.111 247.24C433.191 245.747 430.525 245 427.111 245C425.192 245 423.591 245.32 422.312 245.96C415.698 251.72 408.124 258.014 399.591 264.841C391.271 271.454 383.805 277.641 377.191 283.4C375.485 284.894 372.498 287.027 368.231 289.801C364.201 292.558 359.854 295.105 355.19 297.44H350.929V264.58C357.797 257.144 365.59 250.297 374.312 244.04C378.151 241.267 382.845 238.494 388.392 235.721C394.152 232.947 400.125 230.387 406.312 228.04C412.711 225.48 418.685 223.453 424.231 221.96C429.778 220.467 434.365 219.721 437.991 219.721C444.605 219.721 447.911 222.707 447.911 228.681C447.911 230.387 447.591 232.414 446.951 234.761C446.525 236.681 446.632 238.174 447.271 239.24C447.911 240.094 448.658 240.414 449.512 240.2C450.365 239.774 450.898 239.454 451.111 239.24C453.245 237.747 454.844 234.867 455.911 230.601C456.124 229.321 456.231 228.147 456.231 227.08C456.445 225.8 456.552 224.734 456.552 223.881C456.552 212.121 450.48 205.588 438.337 204.284C438.482 204.102 438.628 203.914 438.773 203.721C447.307 190.707 459.68 181.641 475.894 176.521C492.107 171.401 510.134 168.841 529.974 168.841ZM129.619 273.87C128.075 277.823 127.302 281.853 127.302 285.96C127.302 290.867 128.795 295.454 131.781 299.721C132.983 301.403 134.253 302.814 135.59 303.955C119.804 303.386 106.216 301.112 94.6309 297.458C97.0342 296.165 99.4307 294.788 101.816 293.32C110.35 288.2 118.137 282.867 125.177 277.32C126.711 276.147 128.19 274.995 129.619 273.87ZM208.581 265.801C207.301 269.641 206.234 273.48 205.381 277.32C204.528 281.16 204.102 284.894 204.102 288.521C204.102 289.803 204.185 291.051 204.353 292.265C193.649 297.669 180.544 301.273 165.166 302.971C170.337 300.146 175.423 296.717 180.421 292.681C185.968 288.201 191.195 283.614 196.102 278.921C201.008 274.014 205.168 269.641 208.581 265.801ZM728.374 204.36C737.121 205.854 746.188 207.241 755.574 208.521C765.174 209.8 774.56 210.44 783.733 210.44C790.129 210.44 796.276 210.047 802.175 209.268C802.042 209.692 801.974 210.083 801.974 210.44C801.974 211.08 802.188 211.933 802.614 213C803.041 213.853 803.787 214.814 804.854 215.881C800.16 223.134 795.254 230.92 790.134 239.24C788.562 241.837 787.036 244.414 785.552 246.967C785.291 247.045 785.005 247.136 784.693 247.24C783.413 248.307 782.24 249.267 781.174 250.12C780.321 250.76 779.361 251.507 778.294 252.36C777.441 253 776.481 253.747 775.414 254.601C774.347 255.241 773.28 256.094 772.214 257.16C764.321 263.773 755.574 270.387 745.974 277C737.419 282.703 728.778 287.556 720.054 291.565C714.398 286.858 711.313 280.146 709.732 271.648H708.9C697.692 285.659 681.124 296.872 660.592 301.628C655.647 299.642 653.174 296.127 653.174 291.08C653.174 286.813 655.414 281.267 659.894 274.44C663.438 269.285 667.774 263.764 672.9 257.878C691.616 255.145 703.692 240.51 707.326 222.821C714.413 216.244 721.429 210.09 728.374 204.36ZM277.713 115.232H278.545C289.777 95.6805 310.577 77.792 348.433 77.792C377.15 77.792 399.395 90.9405 410.23 115.402C425.039 92.9361 454.354 77.376 502.376 77.376C545.508 77.3761 574.287 90.3389 586.128 124.031C598.811 97.0187 629.151 77.376 683.108 77.376C719.65 77.376 745.89 86.6805 760.257 110.012V84.4482H826.816V115.232H827.648C838.88 95.6805 859.68 77.7921 897.536 77.792C901.53 77.792 905.399 78.0461 909.129 78.5498C907.539 80.138 905.953 81.754 904.374 83.4004C894.347 93.6404 884.854 104.307 875.894 115.4C871.343 120.982 866.948 126.512 862.708 131.989C839.836 133.327 826.816 146.376 826.816 174.305V182.086C824.822 185.054 822.94 187.892 821.174 190.601C820.554 191.562 819.956 192.493 819.377 193.393C817.241 194.17 814.96 194.84 812.534 195.4C804.214 197.107 794.72 197.96 784.054 197.96C770.187 197.96 755.574 196.787 740.214 194.44C745.761 190.174 750.561 186.547 754.614 183.561C758.881 180.361 762.188 178.121 764.534 176.841C765.174 176.414 766.347 175.56 768.054 174.28C769.974 173 771.68 171.613 773.174 170.12C774.667 168.627 775.414 167.454 775.414 166.601C775.414 164.681 774.347 163.081 772.214 161.801C770.081 160.521 767.627 159.561 764.854 158.921C762.08 158.281 759.627 157.96 757.494 157.96C756.001 157.96 755.041 158.067 754.614 158.28C749.708 160.414 745.867 163.187 743.094 166.601C740.534 170.014 739.681 172.894 740.534 175.24L721.653 191.561C713.12 190.067 705.227 188.467 697.974 186.761C690.72 185.054 684.534 183.56 679.414 182.28C671.948 180.147 662.667 177.694 651.574 174.921C649.058 174.23 646.484 173.552 643.854 172.884C646.636 172.215 649.462 171.581 652.324 170.977C675.62 165.985 708.484 162.656 708.484 141.44C708.484 129.792 699.332 122.305 680.196 122.305C655.652 122.305 644.42 132.289 642.34 153.089H591.777C591.994 156.044 592.133 159.1 592.194 162.258C586.584 161.376 580.884 160.583 575.094 159.881C561.014 157.961 547.04 157 533.174 157C528.107 157 523.113 157.177 518.193 157.529C524.025 153.695 527.752 148.583 527.752 141.44C527.752 129.792 518.6 122.305 499.464 122.305C474.92 122.305 463.687 132.289 461.607 153.089H417.487C417.488 153.227 417.489 153.366 417.489 153.505V190.816C428.304 183.685 441.71 178.532 456.582 174.543C447.32 180.142 439.57 187.521 433.334 196.681C431.841 198.387 431.094 200.627 431.094 203.4C431.094 203.648 431.104 203.878 431.122 204.09C422.952 204.421 413.722 206.431 403.432 210.12C392.978 213.747 382.845 218.654 373.031 224.841C364.99 230.023 357.623 235.657 350.929 241.737V174.721C350.929 142.689 339.696 131.872 317.648 131.872C292.273 131.872 277.713 144.769 277.713 174.305V195.469C276.861 195.729 276.004 196.025 275.142 196.36C273.862 197 272.261 197.96 270.341 199.24C268.421 200.52 266.608 201.694 264.901 202.761C262.128 205.107 260.741 207.347 260.741 209.48C260.741 210.12 260.848 210.547 261.062 210.761C261.702 212.041 262.662 212.681 263.941 212.681C264.795 212.681 265.862 212.254 267.142 211.4C270.768 207.987 274.075 205.96 277.062 205.32C277.285 205.272 277.503 205.229 277.713 205.185V271.133C275.522 274.224 273.173 277.141 270.661 279.881C263.666 287.511 256.316 293.364 248.61 297.44H219.687C219.325 296.072 219.142 294.486 219.142 292.681C219.142 285.854 220.741 279.134 223.941 272.521C227.141 265.694 230.448 259.294 233.861 253.32C235.141 251.4 235.781 249.374 235.781 247.24C235.781 244.467 234.928 242.12 233.222 240.2C231.728 238.28 229.808 237.32 227.461 237.32C224.475 237.32 221.701 238.92 219.142 242.12C213.168 249.373 206.555 256.628 199.302 263.881C192.049 270.921 185.008 277.32 178.182 283.08C176.262 284.573 173.168 286.814 168.901 289.801C164.848 292.574 160.475 295.134 155.781 297.48C151.301 299.827 147.568 301 144.581 301C142.448 301 141.061 300.574 140.421 299.721C139.781 298.867 139.461 297.694 139.461 296.2C139.461 293 140.528 289.054 142.661 284.36C145.008 279.667 147.675 275.081 150.661 270.601C153.648 266.121 155.995 262.814 157.701 260.681C160.022 257.973 162.148 255.578 164.079 253.494C165.961 252.187 167.42 250.62 168.475 248.794C170.727 246.12 172.897 243.363 174.981 240.521C176.475 238.174 177.222 235.4 177.222 232.2C177.222 228.147 175.941 224.52 173.381 221.32C171.034 217.907 168.047 215.453 164.421 213.96C163.141 213.533 162.288 213.32 161.861 213.32C159.515 213.32 158.341 214.387 158.341 216.521C158.341 218.227 159.195 219.72 160.901 221C161.968 221.64 162.501 222.494 162.501 223.561C162.501 223.901 162.46 224.258 162.382 224.632C153.483 218.662 137.921 216.187 118.58 211.744C99.8967 207.385 80.9027 201.471 66.5605 191.264V206.089C63.2115 204.724 59.0706 204.04 54.1367 204.04C45.3902 204.04 35.3631 206.067 24.0566 210.12C15.8396 212.971 7.82168 216.616 0 221.049V84.4482H66.5605V96.3193C82.3689 84.5584 105.671 77.792 135.636 77.792C171.449 77.792 195.798 87.3072 211.152 101.763V0H277.713V115.232ZM775.744 264.843C773.161 270.132 770.917 275.251 769.014 280.2C767.094 285.747 766.134 290.654 766.134 294.921C766.134 296.279 766.223 297.505 766.399 298.599C760.172 299.212 754.409 299.521 749.668 299.521C741.885 299.521 735.525 298.665 730.337 297.011C732.462 295.849 734.582 294.62 736.693 293.32C745.227 288.2 753.121 282.867 760.374 277.32C766.274 272.809 771.397 268.649 775.744 264.843ZM554.996 272.521C558.409 276.574 560.116 280.413 560.116 284.04C560.116 289.065 557.355 293.603 551.834 297.654C543.372 295.46 537.749 291.366 534.064 285.559C535.948 284.066 537.911 282.599 539.956 281.16C545.929 276.894 550.943 274.014 554.996 272.521ZM826.816 297.44H787.532C790.163 295.508 793.164 293.069 796.534 290.12C801.654 285.64 807.201 280.521 813.174 274.761C817.843 270.413 822.39 265.944 826.816 261.354V297.44ZM32.0566 266.44C30.99 269.854 30.0301 273.374 29.1768 277C28.3234 280.413 27.8965 283.721 27.8965 286.921C27.8965 291.01 28.4568 294.517 29.5762 297.44H0V293.728C0.338995 293.487 0.678246 293.245 1.0166 293C7.41644 288.52 13.283 283.933 18.6162 279.24C23.9495 274.334 28.43 270.067 32.0566 266.44ZM998.647 200.097H966.593V234.208H993.794C993.847 234.458 993.93 234.642 994.049 234.761C991.916 236.681 989.036 239.241 985.409 242.44C981.143 246.494 976.662 251.187 971.969 256.521C971.067 257.594 970.196 258.681 969.354 259.78C962.746 264.88 955.487 269.981 947.574 275.08C938.188 281.267 928.907 286.707 919.733 291.4C914.901 293.817 910.375 295.829 906.158 297.44H900.032V201.688C901.156 201.199 902.284 200.705 903.414 200.2C915.574 194.867 926.881 188.574 937.334 181.32C948.427 173.64 959.414 165.32 970.294 156.36C981.174 147.187 990.987 137.48 999.733 127.24C1003.76 122.537 1007.43 117.747 1010.72 112.871L998.647 200.097ZM958.659 278.415C957.079 282.844 956.289 287.385 956.289 292.04C956.289 294.034 956.504 295.834 956.931 297.44H929.399C933.964 294.919 938.529 292.16 943.094 289.16C948.613 285.634 953.801 282.051 958.659 278.415ZM1014.04 293.084C1010.63 294.522 1007.06 295.881 1003.33 297.16C1003.03 297.257 1002.73 297.348 1002.43 297.44H970.105C969.215 296.234 968.769 294.861 968.769 293.32C968.769 288.414 972.502 281.16 979.969 271.561C981.889 269.001 984.662 265.907 988.289 262.28C992.129 258.44 996.076 254.601 1000.13 250.761C1004.18 246.707 1007.92 243.187 1011.33 240.2C1012.3 239.342 1013.2 238.554 1014.04 237.834V293.084ZM411.432 266.44C410.365 269.854 409.405 273.374 408.552 277C407.698 280.413 407.271 283.721 407.271 286.921C407.272 291.01 407.832 294.517 408.951 297.44H373.836C376.034 296.052 378.22 294.573 380.392 293C386.791 288.52 392.658 283.933 397.991 279.24C403.325 274.334 407.805 270.067 411.432 266.44ZM277.713 297.44H264.317C268.031 294.784 271.639 291.811 275.142 288.521C276.012 287.703 276.869 286.877 277.713 286.043V297.44ZM58.6162 219.721C65.2295 219.721 68.5361 222.707 68.5361 228.681C68.5361 230.387 68.2161 232.414 67.5762 234.761C67.1496 236.681 67.2565 238.174 67.8965 239.24C68.5365 240.094 69.2834 240.414 70.1367 240.2C70.9898 239.774 71.523 239.454 71.7363 239.24C73.8696 237.747 75.4695 234.867 76.5361 230.601C76.7495 229.321 76.8564 228.147 76.8564 227.08C76.8767 226.959 76.8928 226.838 76.9111 226.721H100.691C102.6 246.185 114.663 256.544 136.238 258.122C127.47 265.368 117.598 272.516 106.616 279.561C98.5467 284.837 90.5328 289.265 82.5762 292.848C76.5735 290.104 71.248 286.92 66.5605 283.36V297.44H42.5293C42.1608 296.445 41.9766 295.285 41.9766 293.96C41.9767 290.333 43.1495 285.747 45.4961 280.2C47.8427 274.44 50.7234 267.934 54.1367 260.681C56.0567 256.841 57.0166 253.64 57.0166 251.08C57.0165 249.16 56.5896 247.88 55.7363 247.24C53.8163 245.747 51.1496 245 47.7363 245C45.8165 245 44.2165 245.32 42.9365 245.96C36.3232 251.72 28.7492 258.014 20.2158 264.841C12.7989 270.736 6.06063 276.293 0 281.511V240.685C2.70187 239.03 5.70736 237.375 9.0166 235.721C14.7766 232.947 20.7499 230.387 26.9365 228.04C33.3364 225.48 39.3099 223.453 44.8564 221.96C50.4029 220.467 54.9896 219.721 58.6162 219.721ZM816.693 221C817.76 221.213 819.041 221.427 820.534 221.641H825.014C825.608 221.641 826.208 221.632 826.816 221.619V248.312C826.431 248.699 826.044 249.09 825.653 249.48C819.893 255.24 814.134 260.894 808.374 266.44C802.614 271.987 797.387 276.893 792.693 281.16C788 285.427 784.373 288.413 781.813 290.12C781.814 285.64 783.627 279.561 787.254 271.881C790.881 264.201 795.36 255.881 800.693 246.921C806.027 237.748 811.36 229.107 816.693 221ZM527.752 193.44C519.016 196.768 509.032 199.265 491.56 203.425C467.016 209.249 458.279 219.648 458.279 234.624C458.279 250.848 468.679 258.337 485.735 258.337C512.359 258.337 527.752 235.872 527.752 211.328V193.44ZM996.854 40.2002C1004.53 40.2002 1009.97 41.587 1013.17 44.3604C1015.24 46.1489 1016.63 48.6032 1017.37 51.7227V64.8965L1016.89 68.3184C1015.9 73.3098 1014.24 78.3375 1011.89 83.4004C1008.05 92.147 1002.83 100.787 996.214 109.32C989.814 117.64 982.774 125.64 975.094 133.32C967.414 141 959.734 147.933 952.054 154.12C944.587 160.307 937.867 165.534 931.894 169.801C922.934 175.987 913.121 181.641 902.454 186.761C901.646 187.148 900.839 187.531 900.032 187.911V174.721C900.032 150.424 893.57 138.336 880.827 133.913C885.421 128.173 889.963 122.535 894.454 117C900.427 109.747 907.788 101.747 916.534 93C919.876 89.6583 923.277 86.3906 926.737 83.1973C936.818 87.353 945.329 93.8606 951.863 102.573L946.8 66C955.867 58.6735 964.658 52.6337 973.174 47.8809C982.347 42.7609 990.24 40.2003 996.854 40.2002ZM136.884 123.553C118.58 123.553 110.676 130.208 110.676 140.608C110.676 154.752 123.156 155.584 155.188 163.072C175.488 167.896 195.691 173.303 211.152 183.187V149.761H170.164C168.084 132.705 158.932 123.553 136.884 123.553ZM66.5605 59.0723H0V0H66.5605V59.0723ZM1017.37 33.6982C1012.24 30.1403 1005.4 28.3604 996.854 28.3604C987.04 28.3604 976.907 30.8141 966.454 35.7207C959.852 38.8197 953.25 42.6 946.647 47.0605V0H1017.37V33.6982Z" fill="black"/>
</svg>
